<?xml version="1.0" encoding="UTF-8" standalone="no"?>
<svg
   width="256"
   height="256"
   viewBox="0 0 256 256"
   fill="none"
   version="1.1"
   id="svg1"
   sodipodi:docname="fd_double_arrow.svg"
   inkscape:version="1.4.4 (dcaf3e7d9e, 2026-05-05)"
   xmlns:inkscape="http://www.inkscape.org/namespaces/inkscape"
   xmlns:sodipodi="http://sodipodi.sourceforge.net/DTD/sodipodi-0.dtd"
   xmlns="http://www.w3.org/2000/svg"
   xmlns:svg="http://www.w3.org/2000/svg">
  <defs
     id="defs1" />
  <sodipodi:namedview
     id="namedview1"
     pagecolor="#b4b4b4"
     bordercolor="#000000"
     borderopacity="0.25"
     inkscape:showpageshadow="2"
     inkscape:pageopacity="0.0"
     inkscape:pagecheckerboard="true"
     inkscape:deskcolor="#1c1c1c"
     inkscape:zoom="1.1089976"
     inkscape:cx="128"
     inkscape:cy="128"
     inkscape:window-width="1920"
     inkscape:window-height="1011"
     inkscape:window-x="0"
     inkscape:window-y="0"
     inkscape:window-maximized="1"
     inkscape:current-layer="svg1" />
  <path d="M185.35 121.012C199.361 121.085 210.686 109.76 210.613 95.7485L210.484 70.9801C210.411 57.038 199.076 45.7024 185.134 45.6297L160.365 45.5006C146.354 45.4275 135.029 56.753 135.102 70.7643L135.2 89.6141L89.6136 135.201L70.7638 135.102C56.7525 135.029 45.4271 146.355 45.5001 160.366L45.6293 185.134C45.702 199.076 57.0375 210.412 70.9796 210.485L95.748 210.614C109.759 210.687 121.085 199.361 121.012 185.35L120.916 166.923L166.923 120.916L185.35 121.012Z" fill="#000000" stroke="#FFFFFF" stroke-width="17"/>
</svg>
